<svg width="205" height="172" viewBox="0 0 205 172" fill="none" xmlns="http://www.w3.org/2000/svg">
<g clip-path="url(#clip0_49_386)">
<path d="M188.852 90.6927C188.217 83.7005 187.275 72.5215 186.925 64.2443C186.923 64.1909 186.916 64.1378 186.903 64.0858L186.895 64.0549C186.698 63.2615 185.562 63.2761 185.382 64.0739C184.562 67.7347 183.605 72.9738 183.173 78.9314C183.334 80.9763 183.414 83.0419 183.414 85.1282C183.414 87.1855 183.333 89.2242 183.185 91.2381L182.925 93.9771C182.871 94.4709 182.817 94.9648 182.754 95.4557C182.748 95.4976 182.743 95.5399 182.737 95.5818C182.686 95.9708 182.627 96.357 182.571 96.7442C182.522 97.0797 182.476 97.4157 182.423 97.7498C182.321 98.3928 182.212 99.0337 182.097 99.6725C175.272 136.89 142.712 165.098 103.575 165.098C59.5133 165.098 24.0511 129.838 23.7355 85.7052C23.4261 41.2805 59.2905 5.1601 103.575 5.1601C124.709 5.1601 143.918 13.3832 158.197 26.8114C159.676 25.2935 160.387 23.3289 160.387 23.3289C146.331 10.3955 126.572 5.15929 126.572 5.15929C114.686 0.79677 100.505 -0.107915 89.7724 0.00987619C86.2398 0.0469136 82.7134 0.511805 79.3106 1.46608C42.9579 11.6534 16.2557 44.9794 16.0084 84.5827C15.7114 132.676 54.7246 172 102.74 172C146.876 172 183.309 138.978 188.76 96.2511C188.995 94.4108 189.019 92.5456 188.852 90.6927Z" fill="#FF69B4"/>
<path d="M172.492 40.2664C172.814 40.79 173.238 41.3611 173.728 41.7248C174.263 42.1223 174.991 41.5734 174.751 40.9511C174.533 40.3844 174.208 39.7193 173.77 39.2702C173.092 38.5746 171.984 39.438 172.492 40.2664Z" fill="#FF66C4"/>
<path d="M168.599 34.0281C168.92 34.0281 169.179 33.768 169.179 33.4472C169.179 33.1264 168.92 32.8663 168.599 32.8663C168.279 32.8663 168.019 33.1264 168.019 33.4472C168.019 33.768 168.279 34.0281 168.599 34.0281Z" fill="#FF66C4"/>
<path d="M170.172 36.5974C170.713 36.5974 171.151 36.1581 171.151 35.6162C171.151 35.0743 170.713 34.635 170.172 34.635C169.631 34.635 169.192 35.0743 169.192 35.6162C169.192 36.1581 169.631 36.5974 170.172 36.5974Z" fill="#FF66C4"/>
<path d="M166.202 31.2268C166.572 31.2268 166.872 30.9262 166.872 30.5555C166.872 30.1847 166.572 29.8842 166.202 29.8842C165.832 29.8842 165.532 30.1847 165.532 30.5555C165.532 30.9262 165.832 31.2268 166.202 31.2268Z" fill="#FF66C4"/>
<path d="M177.08 52.4763C177.579 52.4763 177.983 52.0717 177.983 51.5726C177.983 51.0735 177.579 50.6689 177.08 50.6689C176.582 50.6689 176.178 51.0735 176.178 51.5726C176.178 52.0717 176.582 52.4763 177.08 52.4763Z" fill="#FF66C4"/>
<path d="M41.7924 43.7387C42.5886 45.2006 41.1291 47.1274 40.3331 48.3235C39.139 50.1175 37.7467 51.7785 36.2204 53.3731C35.0926 54.5027 33.8985 55.8982 32.4392 56.7615C31.1122 57.5592 29.1886 57.3598 30.7808 55.6988C31.2456 55.4331 33.1025 50.7819 34.0314 50.8485C33.8985 50.9813 33.368 52.1108 33.0363 52.7087C34.8273 50.2502 39.6698 43.0081 35.8886 41.2805C34.363 40.6161 32.1074 41.2805 30.5818 41.812C28.857 42.4098 27.1985 43.3404 25.7392 44.4698C27.7958 42.9415 30.1845 41.8792 32.7709 41.4137C33.8987 41.2145 35.4244 40.9482 36.3531 41.7458C37.3481 42.7426 36.7512 43.8057 36.6186 44.8019C36.6186 43.1407 37.149 41.5458 34.695 41.3467C32.6384 41.2803 30.5155 42.0111 28.7244 42.8747C25.6066 44.4032 22.7545 46.9944 21.162 50.1173C17.6461 57.0937 22.887 64.5356 25.6074 70.7813C24.2807 68.2563 22.7553 65.7979 21.4946 63.2726C22.4241 65.3322 22.7553 67.2597 23.883 69.2523C25.4084 71.7107 27.0006 73.9698 27.8636 76.761C29.6547 82.7412 27.7976 87.5915 23.2202 91.5777L24.5472 90.6467C24.6133 92.6401 18.5766 95.1647 17.1838 95.6966C13.2032 97.2912 7.96289 97.6234 3.98306 95.63C-1.72198 92.7067 -0.395439 85.3314 2.3906 80.813C3.05398 79.7501 7.96289 73.2386 9.42239 75.83C10.0195 76.8929 7.89681 79.7501 7.49855 80.813C6.96793 81.9428 6.63614 83.1387 6.37104 84.3346C5.90629 86.4609 5.50843 88.9855 6.43731 91.0455C7.49855 93.5701 10.3513 93.5701 12.6728 92.9056C15.8571 91.9091 18.7094 89.5834 20.4342 86.7265C21.2966 85.2648 21.8935 83.6036 22.0263 81.8762C22.0263 81.2117 21.96 80.6139 21.8272 79.9494C21.6945 79.6173 21.2966 79.0184 21.4294 78.5529C21.4294 78.8189 21.6945 79.284 21.8272 79.6163C21.6945 79.1508 21.5619 78.7523 21.4954 78.2208C21.4954 78.2874 21.2301 77.7553 21.1637 77.7553C20.965 77.2898 20.766 76.7585 20.6332 76.2936L19.4378 73.3059C18.1111 69.8507 16.5192 66.4623 15.0597 63.0071C13.9983 60.4825 13.2687 57.6919 13.1361 54.9676C13.0696 54.3695 12.738 50.3166 13.7995 50.3166C13.733 50.3166 13.534 51.3796 13.6004 51.3796C13.8657 50.1839 14.3299 48.9211 14.9933 47.6588L14.5285 48.3233C14.8601 45.9976 17.6463 43.5392 19.2382 42.0775C21.5595 39.952 24.4789 38.357 27.5302 37.5596C30.7146 36.7623 33.5667 37.2936 36.5519 38.5563C37.7461 39.0218 38.8739 39.5531 39.8023 40.3503C40.93 41.2805 41.2618 42.4764 41.7924 43.7387ZM3.98124 79.8836C0.863412 84.1361 -0.729045 89.8505 2.72057 94.1687C0.133561 90.9139 1.26127 83.8043 3.98124 79.8836ZM19.8355 56.4292C19.8355 56.1633 19.9016 55.8312 19.8355 55.4982V56.4292Z" fill="#FFDE59"/>
<path d="M57.0502 75.964C56.9177 75.964 56.0553 76.2298 56.1207 76.1634C55.4574 76.4291 55.5901 76.3627 55.1258 76.9608C54.5968 77.7586 54.132 78.6218 53.6673 79.4182C53.402 79.6839 51.0136 83.2055 50.5495 83.0062C50.5495 83.0062 51.0801 82.3417 51.0142 82.2752L49.0906 84.5346C49.2896 84.3351 49.4223 84.2685 49.4223 84.3351C49.0245 85.4646 46.8359 86.7935 45.8402 87.5243C44.7789 88.3216 43.4522 89.0526 42.059 89.2517C40.7322 89.3847 39.2729 89.1192 38.0125 88.5209C34.0987 86.5942 31.7768 81.2788 33.8997 77.2255C35.0274 75.0994 35.8233 72.7076 37.4156 70.5812C38.3451 69.4519 39.3392 68.3224 40.5997 67.5251C41.1303 67.1264 41.7273 66.7942 42.3906 66.5286C42.8553 66.2626 43.8501 66.1963 44.1816 65.9303C44.5799 65.6648 44.9778 63.9374 45.2433 63.4057C45.5088 62.874 45.8402 62.3423 46.1718 61.8774C47.1013 60.5483 48.2282 59.2195 49.6214 58.4222C51.8768 57.1599 54.132 58.4222 55.7906 60.0835C55.7906 60.0835 56.9183 60.8145 56.852 61.213L56.5865 60.9473L56.852 61.4789L56.9183 61.5451C56.7192 61.0134 57.5154 62.0106 57.5154 62.0106C57.8467 62.5423 58.046 63.1402 58.1785 63.7382C58.3776 64.6692 58.3115 65.6652 58.1785 66.5952C57.9132 69.0536 57.1838 71.5786 56.4539 73.9705C58.444 73.6381 60.4346 73.1733 62.3578 72.7747C62.8225 72.6416 63.2873 72.3092 63.6183 72.7747C63.6845 72.9075 63.6183 72.8409 63.6183 72.8409C65.5413 75.2996 57.7801 75.8312 57.0502 75.964ZM50.815 76.1634C47.8958 75.7647 44.3138 74.5024 43.5841 71.1799C43.1196 71.7116 42.1901 73.306 41.196 75.2996L41.594 74.7017C41.4615 75.3661 35.0933 87.0601 40.5991 86.2628H40.6656C45.3088 85.3988 48.8909 80.0171 50.815 76.1634ZM53.9989 61.2136C52.6721 59.1539 50.2177 62.1446 49.2227 63.4725C49.2139 63.4723 49.2052 63.4739 49.1971 63.4772C49.189 63.4805 49.1816 63.4854 49.1754 63.4916C49.1692 63.4978 49.1643 63.5053 49.1611 63.5134C49.1578 63.5216 49.1562 63.5303 49.1564 63.5391L49.09 63.6718V63.6057C49.0239 63.7384 48.9574 63.8048 49.0239 63.8048C48.6921 64.2703 48.294 64.6686 47.8958 65.3996C47.9622 65.3331 48.6921 64.1369 48.7584 64.3363C48.9574 64.7352 47.6971 66.8613 47.4981 67.2598C47.0998 68.3232 46.7683 69.3861 46.6355 70.5155C46.5027 71.6448 46.3704 72.9077 47.2989 73.7049C47.8297 74.1704 48.6931 74.3028 49.4217 74.3694C49.8198 74.4358 50.682 74.5689 51.0801 74.4358C51.7434 74.3028 51.5448 74.5023 51.8762 73.8379C52.8712 72.1767 53.2694 69.7182 53.7336 67.8581C54.0653 66.1969 54.994 62.9412 53.9989 61.2136ZM49.2219 63.4725L49.1556 63.5391C49.1644 63.5392 49.1731 63.5376 49.1812 63.5343C49.1894 63.531 49.1967 63.5261 49.2029 63.5199C49.2091 63.5137 49.214 63.5063 49.2173 63.4981C49.2205 63.49 49.2221 63.4813 49.2219 63.4725Z" fill="#FFDE59"/>
<path d="M89.024 76.0967C88.0956 77.6915 86.8353 79.1528 85.5748 80.5493C83.651 82.609 80.8647 85.9978 77.7469 86.1972C76.2876 86.33 74.762 85.5989 73.9661 84.27C72.5729 81.7454 74.0322 78.5559 74.8956 76.2305C73.1706 78.2904 71.5125 80.3499 69.8539 82.4763C69.3892 83.0743 64.3481 88.1903 63.6848 87.3267C63.6848 87.2601 64.2819 86.9944 64.2154 86.928C63.552 87.3267 62.8224 87.6589 62.0925 87.6589C62.159 87.7252 62.2915 87.7252 62.4243 87.7252C62.5568 88.1907 60.6332 87.4595 60.4342 87.3267C59.7045 86.6623 59.3729 85.5989 59.1737 84.6689C58.8421 82.5426 59.1737 80.4165 59.7045 78.3566C60.2353 76.2305 60.7658 74.1708 61.6946 72.1112C62.1594 71.0479 62.9549 70.5162 63.4193 69.5862C64.1491 67.925 65.0778 65.7989 66.5371 64.6032C67.7313 63.5398 69.8539 63.7392 71.0479 64.6693C72.2419 65.5995 71.5785 66.0648 71.0479 66.995C71.1808 66.7955 71.3134 66.6625 71.446 66.5961C71.5786 66.5961 69.9867 69.8517 69.6549 69.7856C69.6549 69.7856 69.8539 69.1211 70.0532 68.7224C69.1906 70.2507 68.3946 71.8453 67.6648 73.4401C67.7973 73.2406 67.9303 73.1742 68.0631 73.1742C67.9303 73.1078 65.5421 79.2864 65.3429 79.8183C65.0778 80.815 63.8836 83.7388 65.6747 83.1407C67.5987 82.609 69.4559 79.9514 70.6501 78.5559C72.2419 76.762 73.5687 74.8352 74.9617 72.8419C76.4214 70.6494 78.146 66.995 81.5287 67.925C84.514 68.7888 82.2586 71.9781 81.3301 73.8386C81.4627 73.7057 81.5952 73.5063 81.6615 73.5729C82.0595 74.0384 80.732 76.5626 80.5338 77.2271C80.1359 78.4898 79.6043 79.9514 79.5386 81.3467C79.4725 82.9411 79.9369 82.4763 80.9983 81.6788C83.2537 79.8848 85.1109 77.626 87.0349 75.5666C87.1675 75.4337 90.2188 71.9123 90.4179 73.1748C90.4831 73.9706 89.4223 75.4323 89.024 76.0967ZM66.2718 76.695C65.5419 78.489 64.1489 81.1463 64.5468 83.0735C64.4136 82.4754 65.3421 79.2862 66.2712 76.695H66.2718ZM75.1605 75.9639C74.9615 76.0967 74.8954 76.2963 74.8954 76.5618C74.9609 76.362 75.0274 76.1633 75.1599 75.9639H75.1605ZM81.9931 70.3172C81.3301 71.9781 79.34 74.1042 79.8704 75.7654C79.8704 75.832 79.8704 75.8982 79.8041 75.9647C79.8704 75.8982 79.9369 75.832 79.9369 75.7654C80.1359 75.4331 80.202 74.9018 80.3349 74.5031C80.7987 73.107 81.462 71.7781 81.9925 70.3164L81.9931 70.3172Z" fill="#FFDE59"/>
<path d="M112.508 54.9015C112.574 55.8325 111.446 56.5627 110.651 56.7616C109.788 57.0278 108.793 56.4961 107.997 56.6289C107.533 56.7616 107.665 56.9612 107.267 57.0944C106.671 57.2937 105.941 57.2275 105.344 57.2275C104.482 57.2275 102.624 56.762 101.894 57.2275C101.762 57.2937 101.629 57.4265 101.496 57.626L101.695 57.2275C101.297 57.2937 100.634 59.0877 100.17 60.2836L100.899 58.8218L99.9697 61.3466C99.3064 62.7431 98.7095 64.2037 98.1122 65.599C96.9184 68.3896 95.8567 71.1139 94.7955 73.9709C93.0046 79.1537 91.2131 84.6018 90.0193 89.9838C89.8203 90.9138 88.6926 94.7681 89.9529 95.2994C90.1519 95.4326 91.5449 94.6349 91.4786 94.7015C91.8104 94.3692 92.2083 94.0371 92.5399 93.6382C92.2748 93.8373 91.5449 94.4358 91.5449 94.3026C91.4786 93.9039 93.1372 92.575 93.4025 92.2427C94.0659 91.5782 94.6628 90.8478 95.2598 90.1834L99.1073 85.4656C101.496 82.4757 103.751 79.4192 106.139 76.4293C106.67 75.7649 107.864 73.4396 108.726 73.2401C109.786 73.0407 109.986 74.1036 109.654 74.9674C109.057 76.7614 107.266 78.2233 106.337 79.8177C104.68 82.6083 102.69 85.1999 100.766 87.8579C98.6444 90.7152 96.5205 93.572 94.199 96.2964C93.1378 97.6252 91.7446 99.4856 90.086 100.283C88.8258 100.881 87.1674 100.15 86.1054 99.3524C84.9112 98.5548 84.2478 97.3591 83.9825 96.0302C83.916 95.6313 83.5178 93.5048 83.916 93.0401V94.0369L84.0488 92.708C83.916 92.9735 83.916 92.1099 83.916 91.9769C83.916 91.4455 84.0488 90.8476 84.1816 90.3157C84.3143 89.2526 84.5794 88.2562 84.8447 87.1928C85.3095 85.1333 85.8399 83.0736 86.2379 80.9475C86.5695 78.8212 87.2992 76.8278 87.9625 74.8353C88.0955 74.5032 89.4218 70.4501 89.7536 70.4501C89.8201 70.4501 89.6211 71.2473 89.6211 71.3137C89.8866 70.3173 90.2845 69.3206 90.616 68.324C90.4835 68.6561 90.2845 68.9884 90.2845 68.8555C90.2845 68.0581 91.1469 66.6628 91.412 65.9317L92.2081 63.6065C92.9379 61.4804 93.6674 59.354 94.5963 57.3607C92.7387 57.4935 90.9478 57.3607 89.2232 57.693C86.7023 58.1585 83.5182 57.8924 80.9974 57.5601C80.6657 57.4935 79.0736 57.4271 79.4715 56.6963C79.6044 56.4969 81.0639 56.1646 81.329 56.0984C82.5893 55.6329 83.9154 55.6329 85.2428 55.5667C87.8292 55.3008 90.3507 55.434 92.9379 55.1012C93.6013 55.0348 94.729 55.2342 95.3259 54.9683C95.923 54.7691 95.923 54.3038 96.1883 53.7057C96.6531 52.5098 97.1835 51.3139 97.7141 50.1842C98.311 48.9214 98.8418 47.5936 99.6377 46.463C100.169 45.7324 100.699 45.532 101.097 44.7356C101.893 42.9416 102.822 41.1476 104.082 39.6194C105.409 37.892 107.731 37.626 109.787 38.0247C110.782 38.2243 112.175 38.8222 111.711 40.1511C111.512 40.6825 110.849 41.0149 110.45 41.4134C110.45 41.48 111.048 40.8155 111.048 41.081C110.981 41.5465 108.527 44.935 108.328 44.8684C108.261 44.8684 109.257 43.2074 109.323 43.0744C106.802 46.7953 104.679 50.8486 102.689 54.9015C102.888 54.9015 103.087 54.6355 103.353 54.1704C103.153 54.5693 103.021 54.8349 103.021 54.9015C105.607 54.7687 108.261 54.7687 110.915 54.6355C111.445 54.6355 112.44 53.9049 112.507 54.8349L112.508 54.9015ZM88.7599 95.7641C88.826 95.83 88.8924 95.8966 88.9587 95.8966L88.7599 95.7641ZM108.527 42.0772C103.221 49.5859 99.9037 58.4888 96.1889 66.7941C93.9998 71.6444 92.1424 76.6944 90.6831 81.8103C90.0198 84.1359 89.4889 86.4616 89.0246 88.8534L89.3564 87.5911C90.0858 84.4683 91.1475 81.3454 92.2752 78.3553C94.6632 71.7776 96.9188 65.0001 99.9037 58.6882C102.557 53.0409 104.945 47.194 108.527 42.0772ZM97.5149 66.3298C96.918 67.6587 96.4534 68.9876 95.9228 70.2499C96.4534 69.0538 96.9841 67.8581 97.4484 66.5954C97.4492 66.5292 97.4492 66.4626 97.5149 66.3298ZM104.082 52.576L103.42 54.0385C103.618 53.6392 103.884 53.1075 104.083 52.576H104.082ZM105.873 49.0544L104.281 52.1105C104.945 50.5825 105.542 49.1204 105.874 49.0546L105.873 49.0544Z" fill="#FFDE59"/>
<path d="M139.307 73.4394C139.573 73.3728 137.782 77.0935 137.516 77.4265C136.521 79.0211 135.46 80.6159 134.398 82.144C132.475 85.0675 130.684 88.4563 128.163 90.9144C127.234 91.7786 126.571 92.2432 125.31 92.1767C123.784 92.1107 122.789 91.4462 121.795 90.4497C121.596 90.2499 119.805 88.7219 120.004 88.257L120.402 88.8548C120.203 88.5225 120.07 88.1904 119.937 87.7919V88.0574C119.739 88.257 119.207 85.8651 119.207 85.599C119.141 84.6024 119.34 83.6056 119.539 82.6091C120.004 81.0144 120.469 79.4198 120.866 77.8254C121.331 76.1641 122.193 74.5697 122.989 72.9747C123.121 72.7091 124.383 70.1179 124.647 70.1179C124.647 70.1841 124.382 70.7824 124.448 70.8486L125.443 68.5895L125.244 68.7888L127.168 64.1377C124.714 66.1311 122.79 68.8554 120.866 71.2473C119.936 72.3768 119.075 73.7721 117.947 74.7025C117.549 75.0346 117.417 74.8353 117.085 75.2342C116.82 75.5661 116.62 76.0314 116.422 76.4299C114.896 78.9549 112.972 81.2138 111.38 83.6722L110.186 85.7985C110.053 86.1307 110.053 86.33 109.788 86.6623C108.926 87.5933 107.4 87.2602 106.67 86.33C106.073 85.6656 106.007 84.7352 106.007 83.938C105.742 81.0144 106.405 77.8916 106.935 75.0346C108.063 68.7888 109.589 62.5433 111.646 56.4969C113.436 51.1149 116.156 46.2646 118.743 41.215C118.743 41.1484 119.075 39.7529 119.407 39.554C119.34 39.6201 118.942 40.8163 118.942 40.8163L119.738 39.2878C119.687 39.283 119.64 39.2594 119.605 39.2216C119.605 38.0255 121.065 36.2315 121.728 35.2345C122.658 33.7063 123.652 32.2444 124.714 30.782C126.571 28.1914 128.362 25.3338 130.883 23.4067C132.209 22.4103 133.802 21.4799 135.526 21.6127C136.389 21.6127 137.251 21.945 137.848 22.5437C138.113 22.8094 139.307 24.8689 138.909 25.1343C138.909 25.1343 138.577 24.1375 138.511 24.1375C138.909 25.2004 138.976 26.3966 138.909 27.4597C138.976 27.3265 138.976 27.2604 139.042 27.2604C139.374 27.2604 137.914 33.3726 137.782 33.9046C137.118 36.2301 136.189 38.4892 135.194 40.6819C132.939 45.3328 130.219 50.3157 126.836 54.3028C126.173 55.0338 125.31 55.5653 124.714 56.1631C124.051 56.8942 123.586 57.8243 122.923 58.6216C121.197 60.6161 119.34 62.4761 117.416 64.2035C116.289 65.2664 115.891 65.8647 115.36 67.3264C114.895 68.7216 114.498 70.1171 114.033 71.446C113.171 74.1034 112.375 76.7612 111.645 79.4856C112.773 77.758 113.967 76.0967 115.228 74.4357C114.365 75.4323 113.768 76.1633 113.768 76.1633C113.635 76.0968 121.994 65.8647 122.856 64.9345C124.846 62.808 128.495 58.2237 131.413 61.8116C133.072 63.8714 131.811 66.3298 130.816 68.3231C129.091 71.9773 126.969 76.2297 125.908 79.9507C125.974 79.8841 126.306 78.8875 126.504 79.0197C126.903 79.4184 125.708 82.5413 125.575 83.1393C125.508 83.6048 125.044 85.7299 125.575 86.0627C126.437 86.6609 127.963 84.8669 128.56 84.3353C130.948 82.0098 133.137 79.4184 135.326 76.8936C136.123 75.8968 136.918 74.8338 137.847 73.9039C138.046 73.7043 138.51 73.0398 138.842 73.0398C138.976 73.0405 139.706 73.3728 139.307 73.4394ZM116.355 61.0816C116.289 61.4139 116.023 62.4781 116.156 62.4781C115.957 62.4115 118.61 55.4349 118.876 54.7707C119.407 53.3752 120.202 52.1801 120.667 50.7174C121.197 49.1894 121.861 47.8605 122.59 46.465C123.453 44.6048 131.612 28.9904 131.082 28.6581C130.949 28.5919 124.581 40.7509 123.984 42.0798C122.657 44.8703 120.933 47.5281 119.871 50.4517C118.677 53.9069 117.018 57.2953 116.421 60.8833L116.355 61.0816ZM116.355 61.0816C116.355 61.0816 116.421 61.015 116.421 60.9488C116.421 61.014 116.355 61.014 116.355 61.0816ZM133.005 28.3915C130.617 32.1789 128.561 36.2983 126.504 40.2848C124.647 43.9394 122.59 47.7267 120.998 51.3808C121.197 51.0485 121.396 50.7164 121.529 50.65C121.529 50.65 120.136 54.5703 119.937 54.9688L117.947 60.2178C122.723 55.1682 126.836 49.5207 130.219 43.5408C128.892 45.7337 127.499 47.9264 126.039 49.9194L123.387 53.6405L122.192 54.8363L122.723 54.2384C123.387 53.4412 123.984 52.6438 124.581 51.8465C125.708 50.2517 126.836 48.5905 127.897 46.9297C130.087 43.4737 132.077 39.9521 133.669 36.2307C134.465 34.304 135.261 32.3106 135.792 30.2511C136.057 29.2543 136.919 26.4638 135.99 25.6663C135.062 24.8689 133.735 27.261 133.205 28.0582C133.271 27.9916 133.205 28.1248 133.138 28.2577V28.1912C133.138 28.2 133.137 28.2087 133.133 28.2169C133.13 28.225 133.125 28.2325 133.119 28.2387C133.113 28.2449 133.106 28.2498 133.097 28.2531C133.089 28.2563 133.08 28.2579 133.072 28.2577V28.3239C133.072 28.3327 133.07 28.3415 133.067 28.3496C133.064 28.3578 133.059 28.3652 133.053 28.3714C133.046 28.3777 133.039 28.3826 133.031 28.3858C133.023 28.3891 133.014 28.3907 133.005 28.3905L133.005 28.3915ZM121.462 55.6333C121.264 55.8326 121.131 56.0988 120.998 56.2313C121.131 56.031 121.264 55.8316 121.463 55.6323L121.462 55.6333ZM133.139 28.2577H133.072V28.3239L133.139 28.2577Z" fill="#FFDE59"/>
<path d="M159.673 74.2369L157.617 76.9611L154.035 81.6122C153.105 82.808 151.979 83.9375 151.049 85.1338C150.054 86.4627 149.192 87.8578 148.065 89.1209C146.87 90.3832 145.477 91.7115 143.885 92.5757C142.758 93.1736 141.696 93.2402 140.502 92.9078C138.778 92.4423 137.252 91.38 136.124 90.0509C135.792 89.6522 135.461 89.3201 135.394 88.7886C135.328 88.3899 135.262 87.9248 135.262 87.4597C135.195 86.6625 135.461 86.0642 135.593 85.267C135.726 84.4032 136.124 83.6058 136.257 82.7424C136.389 81.8114 136.654 80.9484 136.787 80.0846C136.854 79.2872 136.721 78.4234 136.92 77.6262C137.053 77.0945 137.451 76.5628 137.649 75.9649C137.451 76.3636 137.119 76.7622 137.053 77.0945C136.854 77.6262 136.721 78.1576 136.522 78.6227C136.323 79.1544 136.257 79.6195 136.057 80.1508C135.792 80.749 135.527 81.2805 135.46 81.945C135.394 82.5428 135.46 83.1409 135.394 83.739C135.262 84.3368 135.129 84.8019 135.129 85.3998C135.129 85.5991 135.262 85.998 135.262 86.1308C135.262 86.3965 135.129 86.7287 135.129 87.0618C135.129 87.6599 135.262 88.2579 135.328 88.9224C134.266 87.0618 134.465 85.2016 134.797 83.2081C135.129 81.2145 135.394 79.288 135.859 77.3612C136.721 73.4411 138.512 69.5872 141.033 66.4643C143.089 63.7402 145.809 61.6802 149.391 62.3447C150.717 62.6106 152.177 63.2087 153.039 64.338C153.969 65.6005 153.902 67.1954 153.437 68.657C152.575 71.2476 150.386 73.308 148.33 75.0356C147.467 75.7664 146.538 76.4974 145.543 77.0953C144.88 77.494 144.151 77.7597 143.422 78.0263L142.294 78.425C141.829 78.5578 141.763 78.4916 141.564 78.8905C141.232 79.5549 141.432 80.2194 141.299 80.8838C141.166 81.7476 140.967 82.5449 140.768 83.4089C140.436 85.0033 139.906 87.063 140.304 88.724C141.033 92.1129 146.605 86.8637 147.601 85.9335C148.264 85.3356 148.861 84.6712 149.458 84.0729C149.79 83.6744 150.188 83.3423 150.453 82.9434C150.453 82.9434 150.586 82.6112 150.586 82.4779C151.381 81.2154 152.443 80.0194 153.438 78.8235C154.632 77.428 155.693 75.9664 156.821 74.4381C157.418 73.5745 158.812 71.1161 159.872 72.9101V72.9762C159.939 73.0428 159.939 73.0428 159.939 72.9762C160.204 73.5055 160.005 73.8378 159.673 74.2369ZM142.625 75.8316C144.748 74.702 146.672 73.1738 148.197 71.379L149.325 69.9171C149.524 69.585 149.856 69.3856 149.988 68.9871C150.054 68.6548 149.922 68.3889 149.988 67.9904L150.254 66.5939C150.32 65.9294 150.054 64.202 149.06 64.4014C148.595 64.5343 148.13 65.1322 147.866 65.4643L146.672 67.059C145.278 69.1189 144.548 71.378 143.554 73.5041C143.554 73.5041 143.554 73.5707 143.488 73.7034C143.156 74.3693 142.957 75.1001 142.625 75.8312V75.8316Z" fill="#FFDE59"/>
<path d="M181.498 76.0967C180.967 77.2263 180.304 78.2896 179.574 79.3526C178.048 81.6119 176.39 83.8707 174.798 86.1298C173.206 88.3223 171.481 90.5154 169.359 92.309C168.961 92.5747 165.909 95.0334 165.71 94.9668C165.71 94.9002 165.777 94.8338 165.842 94.7678L165.378 94.9668C165.709 94.9002 164.448 95.7644 164.117 95.8978C163.188 96.0969 162.193 95.8312 161.397 95.2999C160.535 94.7686 160.071 93.971 159.672 93.0408C159.009 91.5788 158.943 90.1839 159.208 88.5882C159.274 88.2561 160.203 84.4022 160.667 84.4688C160.8 84.4688 160.534 85.0003 160.6 85.0667L161.065 83.4058C160.866 83.3393 164.382 75.8972 164.714 75.4317C162.724 75.8306 160.203 75.764 158.81 74.0366C158.412 73.5049 158.545 73.0398 158.412 72.6411C158.213 72.1098 157.947 71.8439 157.815 71.3788C157.151 68.1229 160.932 63.605 164.117 65.7975L163.984 65.5981C164.05 65.1996 164.846 66.1962 164.913 66.5291C164.913 66.7947 164.383 68.6552 164.051 68.5225C163.985 68.5225 164.449 67.3263 164.449 67.2597C163.984 68.5225 162.591 69.9175 162.459 71.2468C162.326 72.2436 162.857 72.2436 163.719 72.443C164.98 72.7753 166.97 72.5757 168.562 73.0408C167.5 72.7087 166.24 72.6421 165.378 72.5094C165.369 72.5095 165.36 72.508 165.352 72.5047C165.344 72.5014 165.337 72.4965 165.331 72.4903C165.324 72.4841 165.319 72.4767 165.316 72.4686C165.313 72.4605 165.311 72.4517 165.311 72.443C166.307 72.5757 167.368 72.5757 168.23 72.7753C170.154 73.2408 171.348 73.971 170.552 76.0309C169.756 77.9577 168.761 79.8845 167.898 81.8112C167.102 83.6718 166.439 85.6651 165.709 87.5921C165.51 88.2565 164.051 91.0471 164.582 91.7115C165.245 92.5086 168.894 89.1865 169.889 88.1236C169.69 88.3227 169.49 88.3227 169.358 88.4559C169.225 88.4559 170.684 86.5953 170.884 86.3296L172.807 83.8711L176.389 79.1538L180.039 74.237C180.37 73.8382 181.962 71.5126 182.36 73.2402C182.559 74.17 181.896 75.2995 181.498 76.0967ZM160.933 94.0368C160.868 93.9702 160.801 93.9036 160.801 93.837L160.868 93.9036C160.536 93.1726 160.204 92.4422 160.072 92.0435L160.27 92.9069L160.005 91.5114V91.4454C159.939 91.3124 159.939 91.2458 159.939 91.2458C159.943 91.297 159.967 91.3445 160.005 91.379V91.0467C159.939 90.1157 160.005 89.2525 160.138 88.3889V88.3233C160.002 88.9116 159.935 89.5137 159.939 90.1175C159.873 90.9145 159.939 91.8447 160.138 92.6423C160.204 92.8413 160.735 93.9712 161.133 94.5025C161.133 94.4365 161.133 94.3699 161.066 94.3699C161.465 94.7688 161.996 95.101 162.592 95.3009C161.862 95.0352 161.332 94.5033 160.933 93.972V94.0368ZM160.138 88.2561V88.3233C160.138 88.2571 160.204 88.1906 160.204 88.1242C160.204 88.1895 160.138 88.1895 160.138 88.2561ZM160.337 86.9936C160.337 87.1266 160.27 87.1928 160.27 87.2594C160.27 87.1928 160.336 87.1266 160.336 86.9936H160.337ZM160.47 86.9936C160.934 85.266 161.663 83.6048 162.327 82.0104L163.587 79.0868C163.919 78.489 165.312 75.2333 165.644 75.0338C165.179 75.1667 164.25 77.5586 164.118 77.7579C163.521 78.8875 162.99 80.017 162.526 81.2129C161.73 83.0735 160.933 85.0003 160.47 86.9936ZM160.602 93.5047C160.602 93.4389 160.536 93.3724 160.536 93.3724C160.536 93.4389 160.602 93.4389 160.602 93.5045V93.5047ZM162.526 71.446C162.525 71.4372 162.527 71.4284 162.53 71.4203C162.533 71.4121 162.538 71.4047 162.545 71.3985C162.551 71.3923 162.558 71.3874 162.566 71.3841C162.575 71.3808 162.583 71.3792 162.592 71.3794L162.526 71.446ZM162.526 71.5122C162.592 71.6449 162.99 71.9777 162.99 71.9777C163.322 72.2436 163.787 72.3764 164.317 72.4432C163.72 72.3766 163.123 72.31 162.792 72.0445C162.659 71.9773 162.526 71.6449 162.526 71.5122ZM169.756 77.1601L168.364 80.1498L169.756 77.2263V77.1601ZM169.756 77.0935H169.823V77.0271L169.756 77.0935ZM169.756 77.0935H169.823V77.0271L169.756 77.0935Z" fill="#FFDE59"/>
<path d="M201.929 78.489C200.47 80.3491 199.143 82.3425 197.551 84.0699C196.357 85.3326 194.367 87.4587 192.509 86.8606C192.111 86.7277 189.657 85.3988 189.723 85.0666L189.922 85.1998L189.524 84.8017C189.856 85.3334 189.126 84.6689 189.059 84.6689C188.728 84.3366 188.462 83.8051 188.263 83.4066C187.932 82.6756 187.865 81.9448 187.865 81.2137C187.865 80.4827 187.998 79.7521 188.065 79.021C188.197 77.493 188.263 76.1641 188.728 74.7024C188.86 74.3701 190.253 70.6494 190.718 70.7823C190.85 70.7823 190.519 71.2478 190.585 71.3136L191.515 69.4534C191.382 69.5862 191.316 69.719 191.183 69.7856C191.116 69.719 191.979 68.1909 192.178 67.8588C190.851 69.3869 189.79 70.9817 188.596 72.5761C187.734 73.7057 186.672 74.4365 186.075 75.4997C184.682 77.8915 182.957 80.0844 181.83 82.5428L181.564 82.0114C180.37 83.473 178.579 81.7456 177.916 80.6161C177.319 79.5529 177.518 78.7555 177.651 77.56C177.783 76.497 177.716 75.4337 178.048 74.3041C178.446 72.909 178.978 71.5802 179.508 70.1847C179.973 68.7894 180.437 67.3941 180.967 65.9988C181.299 65.135 181.962 64.0721 182.161 63.1417C182.36 62.4109 182.161 61.9458 183.023 61.4143C183.82 60.9488 184.682 61.0154 185.544 61.1486C186.606 61.3477 188.529 62.4775 187.402 64.1383C186.937 64.7365 186.142 65.401 185.61 66.0654C185.014 66.7961 185.08 67.1284 184.815 67.9922C184.682 68.5239 184.152 68.989 183.885 69.5202C183.487 70.2513 183.222 71.1812 182.956 72.0452C182.824 72.5767 182.89 72.9752 182.824 73.5069C182.691 74.9034 182.227 76.2977 182.094 77.6929C182.16 77.427 182.624 76.9621 182.691 77.0285C182.757 77.0949 182.027 78.2244 182.094 78.2244L186.008 72.5103C185.146 73.6397 184.482 74.4371 184.482 74.4371C184.283 74.3041 192.177 64.2048 193.105 63.341C195.029 61.5471 197.484 61.6137 198.413 64.7365C199.474 68.0586 196.024 70.2513 194.432 72.6431C193.57 73.972 192.84 75.5666 192.176 76.9621C191.712 77.8259 190.717 79.7527 190.584 81.2143C190.717 80.2178 191.447 79.0216 191.713 78.3572C192.243 76.9621 192.973 75.8326 194.034 74.8356C193.569 75.6994 193.039 76.4968 192.641 77.294L192.973 76.8953C193.105 76.8953 192.376 79.1546 192.309 79.2874C192.044 80.0848 191.778 80.9486 191.713 81.812C191.646 81.8786 191.713 82.9415 191.713 82.9415L191.778 83.0081C191.778 82.9415 192.243 82.8754 192.376 82.8088C193.37 82.4766 194.365 81.5465 195.162 80.882C196.754 79.6197 198.279 78.2242 199.805 76.8949C200.933 75.832 202.392 74.7686 203.321 73.6391C203.719 73.0412 204.648 71.9781 204.98 73.5729C205.246 75.1667 202.725 77.4256 201.929 78.489Z" fill="#FFDE59"/>
<path d="M49.4193 99.2773L48.5484 100.848C47.4451 100.383 46.4728 100.049 45.6314 99.8444C44.79 99.6403 43.658 99.5386 42.2354 99.5394C40.1456 99.5683 38.2664 100.142 36.5978 101.262C34.9292 102.381 33.6158 103.973 32.6576 106.037C31.6997 108.101 31.2208 110.5 31.2209 113.232C31.2209 115.645 31.6418 117.877 32.4836 119.926C33.3254 121.976 34.5517 123.611 36.1624 124.832C37.7735 126.053 39.6673 126.663 41.844 126.663C43.2658 126.663 44.4776 126.547 45.4793 126.315C46.4721 126.085 47.4414 125.764 48.3748 125.355L49.4197 126.925C48.6069 127.361 47.4821 127.739 46.0453 128.059C44.6085 128.379 43.2805 128.539 42.0614 128.538C39.1585 128.538 36.7132 127.848 34.7253 126.467C32.7374 125.086 31.2571 123.24 30.2844 120.928C29.3116 118.617 28.8255 116.066 28.8259 113.275C28.8259 110.369 29.3629 107.73 30.4369 105.36C31.5109 102.99 33.0713 101.115 35.1179 99.7355C37.1641 98.3551 39.566 97.6646 42.3235 97.6641C43.3968 97.6641 44.6666 97.8095 46.1327 98.1004C47.5989 98.3913 48.6944 98.7836 49.4193 99.2773Z" fill="black"/>
<path d="M72.7549 127.928V113.755H57.2119V127.928H55.0785V98.2746L57.2119 98.0566V112.055H72.7549V98.2746H74.8883V127.928H72.7549Z" fill="black"/>
<path d="M92.4338 98.2747L103.71 127.71L101.533 128.19L98.0065 118.64H85.1632L81.8106 127.928H79.6772L90.4312 98.2747H92.4338ZM91.476 101.153L85.7728 116.939H97.3973L91.476 101.153Z" fill="black"/>
<path d="M108.499 127.928V98.2746H109.718L124.825 120.514L126.306 123.087V98.2744H128.439V127.928H127.264L111.242 104.162L110.632 102.897V127.928H108.499Z" fill="black"/>
<path d="M148.031 114.715L148.291 113.015H156.825V126.577C156.012 127.13 154.888 127.595 153.45 127.972C152.013 128.35 150.671 128.539 149.425 128.538C146.493 128.538 143.931 127.877 141.74 126.555C139.55 125.233 137.873 123.416 136.712 121.104C135.551 118.793 134.97 116.183 134.97 113.276C134.97 110.283 135.601 107.601 136.864 105.231C138.127 102.86 139.882 101.007 142.13 99.6702C144.38 98.3334 146.898 97.6647 149.684 97.6641C150.758 97.6641 152.05 97.8095 153.559 98.1004C155.068 98.3913 156.186 98.7836 156.911 99.2773L156.084 100.716C155.01 100.281 154.038 99.9611 153.167 99.7572C152.297 99.5533 151.165 99.4516 149.771 99.4522C147.421 99.4522 145.302 100.048 143.415 101.24C141.528 102.432 140.048 104.074 138.974 106.167C137.9 108.261 137.363 110.63 137.363 113.276C137.363 115.834 137.878 118.131 138.909 120.166C139.94 122.201 141.369 123.793 143.197 124.942C145.025 126.091 147.087 126.665 149.381 126.664C151.093 126.664 152.863 126.33 154.692 125.662V114.715H148.031Z" fill="black"/>
<path d="M163.878 127.928V98.2747H178.987L179.204 99.9747H166.012V111.88H176.461L176.678 113.58H166.012V126.226H179.944L180.205 127.926L163.878 127.928Z" fill="black"/>
<path d="M17.0222 144.829C17.0222 145.445 16.7995 145.908 16.3541 146.218C15.9088 146.529 15.2441 146.684 14.3602 146.685C13.7663 146.685 13.2906 146.671 12.9332 146.644H12.9229L12.9736 144.688L12.9229 140.146L14.7245 140.135C15.3319 140.135 15.7992 140.271 16.1264 140.541C16.4536 140.812 16.6173 141.204 16.6174 141.717C16.6174 142.082 16.533 142.396 16.3642 142.66C16.1955 142.924 15.9559 143.124 15.6455 143.258C16.5633 143.441 17.0222 143.964 17.0222 144.829ZM15.757 145.691C16.0534 145.482 16.2016 145.181 16.2016 144.789C16.2016 144.127 15.7867 143.748 14.9569 143.654L13.712 143.664L13.7017 144.616L13.7322 145.975C13.9953 145.996 14.2449 146.006 14.481 146.006C15.0344 146.006 15.4597 145.901 15.757 145.691ZM15.4988 141.043C15.3067 140.884 14.9947 140.805 14.5627 140.805H13.7427L13.7225 142.984L14.836 143.015C15.4701 142.866 15.7872 142.464 15.7872 141.808C15.7872 141.457 15.691 141.202 15.4988 141.043Z" fill="black"/>
<path d="M24.2995 146.016L24.2389 146.644H20.5948L20.6458 144.688L20.5948 140.146H24.249L24.2894 140.227L24.2287 140.855L22.7001 140.825L21.4148 140.845L21.3946 142.974L22.6092 142.994L23.6822 142.964L23.7428 143.035L23.6717 143.664L22.5381 143.643L21.3843 143.654L21.374 144.616L21.4045 145.965L22.69 145.975L24.2488 145.934L24.2995 146.016Z" fill="black"/>
<path d="M32.7006 144.616L32.7208 146.644H31.9212L31.9617 144.688L31.9516 143.714L30.1498 143.704L28.5001 143.714L28.4898 144.616L28.5203 146.644H27.7208L27.7511 144.688L27.7208 140.146H28.5306L28.5003 143.025L30.2211 143.035L31.9518 143.025L31.9214 140.146H32.7414L32.7006 144.616Z" fill="black"/>
<path d="M41.5573 146.644H40.727L40.575 145.996L40.2113 144.88L38.7536 144.85L37.4378 144.88L37.0432 145.955L36.8815 146.644H36.0717L38.4503 140.146H39.3915L41.5573 146.644ZM39.9876 144.191L38.9349 140.987H38.8642L37.69 144.191L38.8235 144.211L39.9876 144.191Z" fill="black"/>
<path d="M47.0534 146.644H46.112L43.946 140.146H44.7765L44.9285 140.805L46.5781 145.824H46.6387L48.4605 140.845L48.6222 140.146H49.4319L47.0534 146.644Z" fill="black"/>
<path d="M53.4602 144.616L53.5006 146.644H52.6806L52.7313 144.688L52.6806 140.146H53.5109L53.4602 144.616Z" fill="black"/>
<path d="M61.8565 140.906C62.3318 141.453 62.5697 142.241 62.5699 143.268C62.5699 144.377 62.3169 145.23 61.8108 145.828C61.3047 146.426 60.5826 146.725 59.6445 146.725C58.7674 146.725 58.0909 146.441 57.6152 145.874C57.1394 145.306 56.9015 144.499 56.9017 143.451C56.9017 142.37 57.153 141.538 57.6556 140.956C58.1582 140.375 58.8752 140.085 59.8067 140.086C60.6973 140.085 61.3805 140.359 61.8565 140.906ZM57.7317 143.359C57.7317 144.285 57.8953 144.971 58.2226 145.418C58.5498 145.864 59.0441 146.087 59.7055 146.087C61.0549 146.087 61.7296 145.198 61.7298 143.42C61.7298 142.515 61.5662 141.842 61.2389 141.403C60.9117 140.964 60.4174 140.744 59.756 140.744C58.4062 140.744 57.7315 141.616 57.7317 143.359Z" fill="black"/>
<path d="M70.4444 146.452L70.4345 146.553C70.1938 146.647 69.9419 146.708 69.6852 146.735L69.5741 146.664C69.0207 145.833 68.5247 145.022 68.0861 144.231H66.9024V144.615L66.9428 146.643H66.1224L66.1732 144.687L66.1224 140.145L68.1063 140.134C68.7406 140.134 69.2316 140.295 69.5791 140.616C69.9267 140.937 70.1004 141.395 70.1002 141.99C70.1002 142.436 69.9839 142.836 69.7511 143.191C69.5183 143.547 69.1893 143.822 68.7642 144.018C69.2098 144.755 69.7699 145.566 70.4444 146.452ZM66.9121 143.542L68.1265 143.572C68.8822 143.357 69.2601 142.853 69.2603 142.062C69.2603 141.649 69.1489 141.34 68.9261 141.134C68.7032 140.928 68.3692 140.818 67.924 140.805L66.9424 140.835L66.9121 143.542Z" fill="black"/>
<path d="M78.6634 146.644H77.834L77.682 145.996L77.3183 144.88L75.8608 144.85L74.5448 144.88L74.1504 145.955L73.9887 146.644H73.1786L75.5573 140.146H76.4987L78.6634 146.644ZM77.0944 144.191L76.0417 140.987H75.971L74.7968 144.191L75.9305 144.211L77.0944 144.191Z" fill="black"/>
<path d="M85.303 146.036L85.2323 146.644H82.0339L82.0844 144.688L82.0339 140.146H82.8637L82.8132 144.616L82.8435 145.965H85.2422L85.303 146.036Z" fill="black"/>
<path d="M97.4084 144.616L97.4287 146.644H96.6291L96.6695 144.688L96.6592 143.714L94.8574 143.704L93.2078 143.714L93.1975 144.616L93.228 146.644H92.4284L92.4587 144.688L92.4284 140.146H93.2381L93.2078 143.025L94.9285 143.035L96.6592 143.025L96.6289 140.146H97.4489L97.4084 144.616Z" fill="black"/>
<path d="M105.284 146.016L105.222 146.644H101.578L101.629 144.688L101.578 140.146H105.234L105.274 140.227L105.213 140.855L103.685 140.825L102.4 140.845L102.379 142.974L103.594 142.994L104.667 142.964L104.728 143.035L104.657 143.664L103.523 143.643L102.369 143.654L102.359 144.616L102.39 145.965L103.675 145.975L105.234 145.934L105.284 146.016Z" fill="black"/>
<path d="M113.381 146.644H112.55L112.399 145.996L112.035 144.88L110.577 144.85L109.261 144.88L108.867 145.955L108.705 146.644H107.896L110.274 140.146H111.215L113.381 146.644ZM111.812 144.191L110.759 140.987H110.688L109.514 144.191L110.647 144.211L111.812 144.191Z" fill="black"/>
<path d="M120.02 146.036L119.95 146.644H116.751L116.802 144.688L116.751 140.146H117.581L117.531 144.616L117.561 145.965H119.96L120.02 146.036Z" fill="black"/>
<path d="M126.538 140.227L126.478 140.855L125.344 140.795H124.686L124.655 144.617L124.686 146.645H123.866L123.927 144.688L123.876 140.795H123.218L122.064 140.855L122.014 140.774L122.074 140.146H126.478L126.538 140.227Z" fill="black"/>
<path d="M134.919 144.616L134.94 146.644H134.14L134.18 144.688L134.17 143.714L132.369 143.704L130.719 143.714L130.708 144.616L130.739 146.644H129.939L129.969 144.688L129.939 140.146H130.749L130.719 143.025L132.439 143.035L134.17 143.025L134.139 140.146H134.959L134.919 144.616Z" fill="black"/>
<path d="M146.205 140.398L146.073 141.179L145.932 141.219C145.743 141.075 145.533 140.959 145.31 140.875C145.101 140.796 144.88 140.755 144.657 140.754C144.407 140.754 144.189 140.805 144.004 140.907C143.829 140.997 143.682 141.134 143.579 141.302C143.484 141.454 143.433 141.629 143.432 141.809C143.43 141.984 143.489 142.154 143.599 142.29C143.717 142.434 143.859 142.556 144.019 142.65C144.188 142.752 144.417 142.873 144.707 143.014C145.071 143.184 145.365 143.341 145.588 143.486C145.812 143.632 146.006 143.82 146.16 144.038C146.319 144.262 146.398 144.532 146.398 144.85C146.4 145.181 146.305 145.505 146.125 145.782C145.942 146.065 145.686 146.292 145.356 146.461C145.026 146.63 144.648 146.715 144.222 146.715C143.923 146.713 143.625 146.674 143.336 146.599C143.037 146.524 142.75 146.409 142.481 146.259L142.582 145.428L142.693 145.377C142.918 145.599 143.185 145.773 143.478 145.889C143.764 146 144.04 146.056 144.303 146.056C144.56 146.056 144.787 146.006 144.986 145.904C145.186 145.802 145.337 145.667 145.442 145.499C145.544 145.338 145.598 145.152 145.599 144.962C145.599 144.678 145.491 144.45 145.275 144.277C145.06 144.104 144.733 143.917 144.293 143.714C143.936 143.539 143.649 143.382 143.433 143.243C143.214 143.102 143.025 142.919 142.876 142.706C142.721 142.487 142.644 142.218 142.644 141.9C142.642 141.576 142.735 141.259 142.912 140.988C143.09 140.71 143.34 140.492 143.661 140.333C143.981 140.174 144.347 140.095 144.757 140.095C145.223 140.095 145.706 140.196 146.205 140.398Z" fill="black"/>
<path d="M153.716 146.016L153.655 146.644H150.011L150.062 144.688L150.011 140.146H153.665L153.705 140.227L153.645 140.855L152.117 140.825L150.831 140.845L150.811 142.974L152.025 142.994L153.098 142.964L153.159 143.035L153.088 143.664L151.955 143.643L150.801 143.654L150.79 144.616L150.821 145.965L152.106 145.975L153.665 145.934L153.716 146.016Z" fill="black"/>
<path d="M161.448 146.452L161.437 146.553C161.197 146.646 160.945 146.708 160.688 146.735L160.577 146.664C160.023 145.833 159.527 145.022 159.089 144.231H157.905V144.615L157.945 146.643H157.125L157.176 144.687L157.125 140.145L159.11 140.134C159.743 140.134 160.233 140.295 160.582 140.616C160.93 140.937 161.104 141.395 161.103 141.99C161.103 142.436 160.987 142.836 160.754 143.191C160.521 143.547 160.192 143.822 159.767 144.018C160.213 144.755 160.773 145.566 161.448 146.452ZM157.915 143.542L159.129 143.572C159.885 143.357 160.263 142.853 160.263 142.062C160.263 141.649 160.152 141.34 159.929 141.134C159.706 140.928 159.372 140.818 158.927 140.805L157.945 140.835L157.915 143.542Z" fill="black"/>
<path d="M167.066 146.644H166.124L163.958 140.146H164.788L164.94 140.805L166.59 145.824H166.65L168.472 140.845L168.634 140.146H169.444L167.066 146.644Z" fill="black"/>
<path d="M173.473 144.616L173.513 146.644H172.693L172.744 144.688L172.693 140.146H173.523L173.473 144.616Z" fill="black"/>
<path d="M181.56 140.582L181.398 141.322L181.308 141.342C180.855 140.964 180.335 140.775 179.749 140.774C179.107 140.774 178.615 140.996 178.271 141.438C177.927 141.881 177.755 142.528 177.754 143.379C177.754 144.238 177.926 144.894 178.271 145.347C178.615 145.8 179.101 146.026 179.728 146.025C180.031 146.024 180.331 145.969 180.614 145.863C180.905 145.756 181.177 145.602 181.419 145.407L181.52 145.457L181.449 146.228C180.862 146.552 180.265 146.714 179.658 146.714C178.787 146.714 178.112 146.431 177.633 145.867C177.154 145.303 176.915 144.497 176.915 143.449C176.915 142.375 177.164 141.547 177.662 140.965C178.161 140.384 178.87 140.094 179.789 140.095C180.47 140.095 181.06 140.257 181.56 140.582Z" fill="black"/>
<path d="M188.676 146.016L188.615 146.644H184.971L185.022 144.688L184.971 140.146H188.625L188.665 140.227L188.605 140.855L187.077 140.825L185.791 140.845L185.771 142.974L186.985 142.994L188.058 142.964L188.119 143.035L188.048 143.664L186.915 143.643L185.761 143.654L185.75 144.616L185.781 145.965L187.066 145.975L188.625 145.934L188.676 146.016Z" fill="black"/>
<path d="M195.295 140.398L195.163 141.179L195.022 141.219C194.833 141.075 194.623 140.959 194.4 140.875C194.191 140.796 193.97 140.755 193.747 140.754C193.497 140.754 193.279 140.805 193.094 140.907C192.909 141.008 192.767 141.14 192.67 141.302C192.575 141.454 192.524 141.629 192.523 141.809C192.521 141.984 192.58 142.155 192.69 142.291C192.808 142.434 192.95 142.556 193.11 142.65C193.279 142.752 193.508 142.873 193.798 143.014C194.162 143.184 194.456 143.341 194.679 143.486C194.903 143.632 195.096 143.82 195.251 144.038C195.409 144.262 195.489 144.532 195.489 144.85C195.491 145.181 195.396 145.505 195.216 145.782C195.033 146.065 194.777 146.292 194.446 146.461C194.116 146.63 193.738 146.715 193.312 146.715C193.014 146.713 192.716 146.674 192.427 146.599C192.128 146.524 191.841 146.409 191.572 146.259L191.673 145.428L191.784 145.377C192.008 145.599 192.275 145.773 192.569 145.889C192.855 146 193.13 146.056 193.394 146.056C193.651 146.056 193.879 146.006 194.077 145.904C194.275 145.802 194.428 145.667 194.533 145.499C194.635 145.338 194.689 145.152 194.69 144.962C194.69 144.678 194.582 144.45 194.366 144.277C194.151 144.104 193.823 143.917 193.384 143.715C193.026 143.539 192.739 143.382 192.523 143.243C192.305 143.102 192.116 142.919 191.967 142.706C191.812 142.487 191.734 142.218 191.734 141.9C191.732 141.576 191.826 141.259 192.003 140.988C192.181 140.71 192.43 140.492 192.75 140.333C193.071 140.174 193.437 140.095 193.849 140.095C194.314 140.095 194.796 140.196 195.295 140.398Z" fill="black"/>
</g>
<defs>
<clipPath id="clip0_49_386">
<rect width="205" height="172" fill="white"/>
</clipPath>
</defs>
</svg>
